<?xml version="1.0" ?><svg width="512px" height="512px" viewBox="0 0 512 512" style="enable-background:new 0 0 512 512;" version="1.1" xml:space="preserve" xmlns="http://www.w3.org/2000/svg" xmlns:xlink="http://www.w3.org/1999/xlink"><style type="text/css">
	.st0{fill:#333333;}
	.st1{fill:none;stroke:#333333;stroke-width:32;stroke-linecap:round;stroke-linejoin:round;stroke-miterlimit:10;}
</style><g id="Layer_1"/><g id="Layer_2"><g><g><path class="st0" d="M382.77,258.23h-85.41v-89.22c0-27.92-22.64-50.56-50.56-50.56h0c-27.92,0-50.56,22.64-50.56,50.56v157.87     l-35.69-29.91c-21.4-17.93-53.29-15.13-71.22,6.27l0,0c-17.94,21.4-15.13,53.29,6.27,71.23l100.63,84.34l11.57,9.69h226.66     V309.93C434.47,281.38,411.33,258.23,382.77,258.23z"/></g><g><path class="st0" d="M130.89,226.41c1.82,0,3.67-0.31,5.48-0.97c8.3-3.03,12.58-12.21,9.55-20.51     c-4.33-11.86-6.52-24.35-6.52-37.11c0-59.73,48.59-108.32,108.32-108.32s108.32,48.59,108.32,108.32     c0,10.69-1.55,21.24-4.6,31.36c-2.55,8.46,2.23,17.39,10.69,19.94c8.46,2.56,17.39-2.23,19.94-10.69     c3.96-13.12,5.97-26.79,5.97-40.61c0-77.37-62.95-140.32-140.32-140.32c-77.37,0-140.32,62.95-140.32,140.32     c0,16.51,2.84,32.68,8.46,48.07C118.22,222.38,124.36,226.41,130.89,226.41z"/></g></g></g></svg>