<?xml version="1.0" ?><svg width="512px" height="512px" viewBox="0 0 512 512" style="enable-background:new 0 0 512 512;" version="1.1" xml:space="preserve" xmlns="http://www.w3.org/2000/svg" xmlns:xlink="http://www.w3.org/1999/xlink"><style type="text/css">
	.st0{fill:#333333;}
	.st1{fill:none;stroke:#333333;stroke-width:32;stroke-linecap:round;stroke-linejoin:round;stroke-miterlimit:10;}
</style><g id="Layer_1"/><g id="Layer_2"><g><path class="st0" d="M458.94,230.05L266.16,47.55c-5.7-5.4-14.63-5.4-20.33,0L53.06,230.05c-9.71,9.19-3.2,25.52,10.16,25.52    h50.97v200.61c0,6.81,5.52,12.32,12.32,12.32h62.13c6.81,0,12.32-5.52,12.32-12.32V334.35c0-6.81,5.52-12.32,12.32-12.32h85.41    c6.81,0,12.32,5.52,12.32,12.32v121.83c0,6.81,5.52,12.32,12.32,12.32h62.13c6.81,0,12.32-5.52,12.32-12.32V255.57h50.97    C462.15,255.57,468.65,239.24,458.94,230.05z"/></g></g></svg>